<svg width="3076" height="1723" xmlns="http://www.w3.org/2000/svg" xmlns:xlink="http://www.w3.org/1999/xlink" xml:space="preserve" overflow="hidden"><defs><clipPath id="clip0"><rect x="705" y="316" width="3076" height="1723"/></clipPath><clipPath id="clip1"><rect x="705" y="316" width="3076" height="1723"/></clipPath><clipPath id="clip2"><rect x="1532" y="526" width="2107" height="1406"/></clipPath><clipPath id="clip3"><rect x="1532" y="526" width="2107" height="1406"/></clipPath><clipPath id="clip4"><rect x="1532" y="526" width="2107" height="1406"/></clipPath><clipPath id="clip5"><rect x="-7728" y="-17774" width="18728" height="18732"/></clipPath><clipPath id="clip6"><rect x="-7728" y="-17774" width="18728" height="18732"/></clipPath><clipPath id="clip7"><rect x="-7073" y="-17774" width="18728" height="18732"/></clipPath><clipPath id="clip8"><rect x="-7073" y="-17774" width="18728" height="18732"/></clipPath><clipPath id="clip9"><rect x="-6417" y="-17774" width="18728" height="18732"/></clipPath><clipPath id="clip10"><rect x="-6417" y="-17774" width="18728" height="18732"/></clipPath><clipPath id="clip11"><rect x="-6417" y="-17774" width="18728" height="18732"/></clipPath><clipPath id="clip12"><rect x="-7803" y="-17137" width="18728" height="18732"/></clipPath><clipPath id="clip13"><rect x="-7728" y="-17062" width="18728" height="18732"/></clipPath><clipPath id="clip14"><rect x="-7747" y="-17081" width="18728" height="18732"/></clipPath><clipPath id="clip15"><rect x="-7147" y="-17137" width="18728" height="18732"/></clipPath><clipPath id="clip16"><rect x="-7073" y="-17062" width="18728" height="18732"/></clipPath><clipPath id="clip17"><rect x="-7091" y="-17081" width="18728" height="18732"/></clipPath><clipPath id="clip18"><rect x="-6567" y="-17212" width="18728" height="18732"/></clipPath><clipPath id="clip19"><rect x="-6567" y="-17212" width="18728" height="18732"/></clipPath><clipPath id="clip20"><rect x="-6492" y="-17137" width="18728" height="18732"/></clipPath><clipPath id="clip21"><rect x="-6492" y="-17137" width="18728" height="18732"/></clipPath><clipPath id="clip22"><rect x="-6417" y="-17062" width="18728" height="18732"/></clipPath><clipPath id="clip23"><rect x="-6436" y="-17081" width="18728" height="18732"/></clipPath><clipPath id="clip24"><rect x="-6342" y="-16987" width="18728" height="18732"/></clipPath></defs><g clip-path="url(#clip0)" transform="translate(-705 -316)"><g clip-path="url(#clip1)"><rect x="709.5" y="321.5" width="3065" height="1714" stroke="#7F7F7F" stroke-width="6.875" stroke-linecap="butt" stroke-linejoin="miter" stroke-miterlimit="8" stroke-opacity="1" fill="#FFFFFF" fill-opacity="1"/><g clip-path="url(#clip2)"><g clip-path="url(#clip3)"><g clip-path="url(#clip4)"><path d="M187287 0C187287 103436 103436 187287 6.30077e-11 187287-103436 187287-187287 103436-187287 6.30077e-11-187287-103436-103436-187287-5.50251e-11-187287 103436-187287 187287-103436 187287 0Z" fill="#FFFFFF" fill-rule="nonzero" fill-opacity="1" transform="matrix(1 0 0 1.00024 1635.01 957.867)"/><text fill="#000000" fill-opacity="1" font-family="Helvetica,Helvetica_MSFontService,sans-serif" font-style="normal" font-variant="normal" font-weight="400" font-stretch="normal" font-size="40" text-anchor="start" direction="ltr" writing-mode="lr-tb" unicode-bidi="normal" text-decoration="none" transform="matrix(1.87289 0 0 1.87333 1720.23 1052)">1D nearest-</text><text fill="#000000" fill-opacity="1" font-family="Helvetica,Helvetica_MSFontService,sans-serif" font-style="normal" font-variant="normal" font-weight="400" font-stretch="normal" font-size="40" text-anchor="start" direction="ltr" writing-mode="lr-tb" unicode-bidi="normal" text-decoration="none" transform="matrix(1.87289 0 0 1.87333 1749.26 1126)">neighbour</text><path d="M-18.7289 0 580.596 0" stroke="#EEEEEE" stroke-width="9.36444" stroke-linecap="round" stroke-linejoin="round" stroke-miterlimit="4" stroke-opacity="1" fill="none" fill-rule="nonzero" transform="matrix(1 0 0 1.00024 1635.01 957.867)"/><g clip-path="url(#clip5)"><path d="M7.49155 0C7.49155 4.13747 4.13747 7.49155 1.34384e-15 7.49155-4.13747 7.49155-7.49155 4.13747-7.49155 1.34384e-15-7.49155-4.13747-4.13747-7.49155-1.93196e-15-7.49155 4.13747-7.49155 7.49155-4.13747 7.49155 0Z" stroke="#CC9900" stroke-width="14.9831" stroke-linecap="round" stroke-linejoin="round" stroke-miterlimit="4" stroke-opacity="1" fill="none" fill-rule="nonzero" transform="matrix(1 0 0 1.00024 1822.3 770.533)"/><path d="M0 18.7289 0 18727" stroke="#CC9900" stroke-width="9.36444" stroke-linecap="round" stroke-linejoin="round" stroke-miterlimit="4" stroke-opacity="1" fill="none" fill-rule="nonzero" transform="matrix(1 0 0 1.00024 1822.3 770.533)"/><path d="M7.49155 0C7.49155 4.13747 4.13747 7.49155 1.34384e-15 7.49155-4.13747 7.49155-7.49155 4.13747-7.49155 1.34384e-15-7.49155-4.13747-4.13747-7.49155-1.93196e-15-7.49155 4.13747-7.49155 7.49155-4.13747 7.49155 0Z" stroke="#009900" stroke-width="14.9831" stroke-linecap="round" stroke-linejoin="round" stroke-miterlimit="4" stroke-opacity="1" fill="none" fill-rule="nonzero" transform="matrix(1 0 0 1.00024 2009.59 583.2)"/><path d="M0 18.7289 0 18727" stroke="#009900" stroke-width="9.36444" stroke-linecap="round" stroke-linejoin="round" stroke-miterlimit="4" stroke-opacity="1" fill="none" fill-rule="nonzero" transform="matrix(1 0 0 1.00024 2009.59 583.2)"/></g><path d="M187.289 0 374.578 0" stroke="#66CCFF" stroke-width="9.36444" stroke-linecap="round" stroke-linejoin="round" stroke-miterlimit="4" stroke-opacity="0.2" fill="none" fill-rule="nonzero" transform="matrix(1 0 0 1.00024 1635.01 957.867)"/><path d="M93.6444-187.289 280.933-187.289 280.933-374.578 468.222-374.578" stroke="#666666" stroke-width="9.36444" stroke-linecap="round" stroke-linejoin="round" stroke-miterlimit="4" stroke-opacity="0.4" fill="none" fill-rule="nonzero" transform="matrix(1 0 0 1.00024 1635.01 957.867)"/><g clip-path="url(#clip6)"><path d="M7.49155 0C7.49155 4.13747 4.13747 7.49155 1.34384e-15 7.49155-4.13747 7.49155-7.49155 4.13747-7.49155 1.34384e-15-7.49155-4.13747-4.13747-7.49155-1.93196e-15-7.49155 4.13747-7.49155 7.49155-4.13747 7.49155 0Z" stroke="#000000" stroke-width="14.9831" stroke-linecap="round" stroke-linejoin="round" stroke-miterlimit="4" stroke-opacity="1" fill="none" fill-rule="nonzero" transform="matrix(1 0 0 1.00024 1869.12 770.533)"/><path d="M0 18.7289 0 18727" stroke="#000000" stroke-width="9.36444" stroke-linecap="round" stroke-linejoin="round" stroke-miterlimit="4" stroke-opacity="1" fill="none" fill-rule="nonzero" transform="matrix(1 0 0 1.00024 1869.12 770.533)"/></g><text fill="#000000" fill-opacity="1" font-family="Helvetica,Helvetica_MSFontService,sans-serif" font-style="normal" font-variant="normal" font-weight="400" font-stretch="normal" font-size="40" text-anchor="start" direction="ltr" writing-mode="lr-tb" unicode-bidi="normal" text-decoration="none" transform="matrix(1.87289 0 0 1.87333 2467.51 1070)">Linear</text><path d="M-18.7289 0 580.596 0" stroke="#EEEEEE" stroke-width="9.36444" stroke-linecap="round" stroke-linejoin="round" stroke-miterlimit="4" stroke-opacity="1" fill="none" fill-rule="nonzero" transform="matrix(1 0 0 1.00024 2290.52 957.867)"/><g clip-path="url(#clip7)"><path d="M7.49155 0C7.49155 4.13747 4.13747 7.49155 1.34384e-15 7.49155-4.13747 7.49155-7.49155 4.13747-7.49155 1.34384e-15-7.49155-4.13747-4.13747-7.49155-1.93196e-15-7.49155 4.13747-7.49155 7.49155-4.13747 7.49155 0Z" stroke="#CC9900" stroke-width="14.9831" stroke-linecap="round" stroke-linejoin="round" stroke-miterlimit="4" stroke-opacity="1" fill="none" fill-rule="nonzero" transform="matrix(1 0 0 1.00024 2477.81 770.533)"/><path d="M0 18.7289 0 18727" stroke="#CC9900" stroke-width="9.36444" stroke-linecap="round" stroke-linejoin="round" stroke-miterlimit="4" stroke-opacity="1" fill="none" fill-rule="nonzero" transform="matrix(1 0 0 1.00024 2477.81 770.533)"/><path d="M7.49155 0C7.49155 4.13747 4.13747 7.49155 1.34384e-15 7.49155-4.13747 7.49155-7.49155 4.13747-7.49155 1.34384e-15-7.49155-4.13747-4.13747-7.49155-1.93196e-15-7.49155 4.13747-7.49155 7.49155-4.13747 7.49155 0Z" stroke="#009900" stroke-width="14.9831" stroke-linecap="round" stroke-linejoin="round" stroke-miterlimit="4" stroke-opacity="1" fill="none" fill-rule="nonzero" transform="matrix(1 0 0 1.00024 2665.1 583.2)"/><path d="M0 18.7289 0 18727" stroke="#009900" stroke-width="9.36444" stroke-linecap="round" stroke-linejoin="round" stroke-miterlimit="4" stroke-opacity="1" fill="none" fill-rule="nonzero" transform="matrix(1 0 0 1.00024 2665.1 583.2)"/></g><path d="M187.289 0 374.578 0" stroke="#66CCFF" stroke-width="9.36444" stroke-linecap="round" stroke-linejoin="round" stroke-miterlimit="4" stroke-opacity="0.2" fill="none" fill-rule="nonzero" transform="matrix(1 0 0 1.00024 2290.52 957.867)"/><path d="M187.289-187.289 374.578-374.578" stroke="#666666" stroke-width="9.36444" stroke-linecap="round" stroke-linejoin="round" stroke-miterlimit="4" stroke-opacity="0.4" fill="none" fill-rule="nonzero" transform="matrix(1 0 0 1.00024 2290.52 957.867)"/><g clip-path="url(#clip8)"><path d="M7.49155 0C7.49155 4.13747 4.13747 7.49155 1.34384e-15 7.49155-4.13747 7.49155-7.49155 4.13747-7.49155 1.34384e-15-7.49155-4.13747-4.13747-7.49155-1.93196e-15-7.49155 4.13747-7.49155 7.49155-4.13747 7.49155 0Z" stroke="#000000" stroke-width="14.9831" stroke-linecap="round" stroke-linejoin="round" stroke-miterlimit="4" stroke-opacity="1" fill="none" fill-rule="nonzero" transform="matrix(1 0 0 1.00024 2524.63 723.7)"/><path d="M0 18.7289 0 18727" stroke="#000000" stroke-width="9.36444" stroke-linecap="round" stroke-linejoin="round" stroke-miterlimit="4" stroke-opacity="1" fill="none" fill-rule="nonzero" transform="matrix(1 0 0 1.00024 2524.63 723.7)"/></g><text fill="#000000" fill-opacity="1" font-family="Helvetica,Helvetica_MSFontService,sans-serif" font-style="normal" font-variant="normal" font-weight="400" font-stretch="normal" font-size="40" text-anchor="start" direction="ltr" writing-mode="lr-tb" unicode-bidi="normal" text-decoration="none" transform="matrix(1.87289 0 0 1.87333 3131.45 1070)">Cubic</text><path d="M-18.7289 0 580.596 0" stroke="#EEEEEE" stroke-width="9.36444" stroke-linecap="round" stroke-linejoin="round" stroke-miterlimit="4" stroke-opacity="1" fill="none" fill-rule="nonzero" transform="matrix(1 0 0 1.00024 2946.03 957.867)"/><g clip-path="url(#clip9)"><path d="M7.49155 0C7.49155 4.13747 4.13747 7.49155 1.34384e-15 7.49155-4.13747 7.49155-7.49155 4.13747-7.49155 1.34384e-15-7.49155-4.13747-4.13747-7.49155-1.93196e-15-7.49155 4.13747-7.49155 7.49155-4.13747 7.49155 0Z" stroke="#CC9900" stroke-width="14.9831" stroke-linecap="round" stroke-linejoin="round" stroke-miterlimit="4" stroke-opacity="1" fill="none" fill-rule="nonzero" transform="matrix(1 0 0 1.00024 3133.32 770.533)"/><path d="M0 18.7289 0 18727" stroke="#CC9900" stroke-width="9.36444" stroke-linecap="round" stroke-linejoin="round" stroke-miterlimit="4" stroke-opacity="1" fill="none" fill-rule="nonzero" transform="matrix(1 0 0 1.00024 3133.32 770.533)"/><path d="M7.49155 0C7.49155 4.13747 4.13747 7.49155 1.34384e-15 7.49155-4.13747 7.49155-7.49155 4.13747-7.49155 1.34384e-15-7.49155-4.13747-4.13747-7.49155-1.93196e-15-7.49155 4.13747-7.49155 7.49155-4.13747 7.49155 0Z" stroke="#009900" stroke-width="14.9831" stroke-linecap="round" stroke-linejoin="round" stroke-miterlimit="4" stroke-opacity="1" fill="none" fill-rule="nonzero" transform="matrix(1 0 0 1.00024 3320.61 583.2)"/><path d="M0 18.7289 0 18727" stroke="#009900" stroke-width="9.36444" stroke-linecap="round" stroke-linejoin="round" stroke-miterlimit="4" stroke-opacity="1" fill="none" fill-rule="nonzero" transform="matrix(1 0 0 1.00024 3320.61 583.2)"/></g><g clip-path="url(#clip10)"><path d="M7.49155 0C7.49155 4.13747 4.13747 7.49155 1.34384e-15 7.49155-4.13747 7.49155-7.49155 4.13747-7.49155 1.34384e-15-7.49155-4.13747-4.13747-7.49155-1.93196e-15-7.49155 4.13747-7.49155 7.49155-4.13747 7.49155 0Z" stroke="#FF0000" stroke-width="14.9831" stroke-linecap="round" stroke-linejoin="round" stroke-miterlimit="4" stroke-opacity="1" fill="none" fill-rule="nonzero" transform="matrix(1 0 0 1.00024 2946.03 676.867)"/><path d="M0 18.7289 0 18727" stroke="#FF0000" stroke-width="9.36444" stroke-linecap="round" stroke-linejoin="round" stroke-miterlimit="4" stroke-opacity="1" fill="none" fill-rule="nonzero" transform="matrix(1 0 0 1.00024 2946.03 676.867)"/><path d="M7.49155 0C7.49155 4.13747 4.13747 7.49155 1.34384e-15 7.49155-4.13747 7.49155-7.49155 4.13747-7.49155 1.34384e-15-7.49155-4.13747-4.13747-7.49155-1.93196e-15-7.49155 4.13747-7.49155 7.49155-4.13747 7.49155 0Z" stroke="#0000FF" stroke-width="14.9831" stroke-linecap="round" stroke-linejoin="round" stroke-miterlimit="4" stroke-opacity="1" fill="none" fill-rule="nonzero" transform="matrix(1 0 0 1.00024 3507.9 864.2)"/><path d="M0 18.7289 0 18727" stroke="#0000FF" stroke-width="9.36444" stroke-linecap="round" stroke-linejoin="round" stroke-miterlimit="4" stroke-opacity="1" fill="none" fill-rule="nonzero" transform="matrix(1 0 0 1.00024 3507.9 864.2)"/></g><path d="M0-280.933C374.578 93.6444 262.204-805.342 561.867-93.6444" stroke="#666666" stroke-width="9.36444" stroke-linecap="round" stroke-linejoin="round" stroke-miterlimit="4" stroke-opacity="0.4" fill="none" fill-rule="nonzero" transform="matrix(1 0 0 1.00024 2946.03 957.867)"/><path d="M0 0 561.867 0" stroke="#66CCFF" stroke-width="9.36444" stroke-linecap="round" stroke-linejoin="round" stroke-miterlimit="4" stroke-opacity="0.2" fill="none" fill-rule="nonzero" transform="matrix(1 0 0 1.00024 2946.03 957.867)"/><g clip-path="url(#clip11)"><path d="M7.49155 0C7.49155 4.13747 4.13747 7.49155 1.34384e-15 7.49155-4.13747 7.49155-7.49155 4.13747-7.49155 1.34384e-15-7.49155-4.13747-4.13747-7.49155-1.93196e-15-7.49155 4.13747-7.49155 7.49155-4.13747 7.49155 0Z" stroke="#000000" stroke-width="14.9831" stroke-linecap="round" stroke-linejoin="round" stroke-miterlimit="4" stroke-opacity="1" fill="none" fill-rule="nonzero" transform="matrix(1 0 0 1.00024 3180.14 746.18)"/><path d="M0 18.7289 0 18727" stroke="#000000" stroke-width="9.36444" stroke-linecap="round" stroke-linejoin="round" stroke-miterlimit="4" stroke-opacity="1" fill="none" fill-rule="nonzero" transform="matrix(1 0 0 1.00024 3180.14 746.18)"/></g><text fill="#000000" fill-opacity="1" font-family="Helvetica,Helvetica_MSFontService,sans-serif" font-style="normal" font-variant="normal" font-weight="400" font-stretch="normal" font-size="40" text-anchor="start" direction="ltr" writing-mode="lr-tb" unicode-bidi="normal" text-decoration="none" transform="matrix(1.87289 0 0 1.87333 1720.23 1820)">2D nearest-</text><text fill="#000000" fill-opacity="1" font-family="Helvetica,Helvetica_MSFontService,sans-serif" font-style="normal" font-variant="normal" font-weight="400" font-stretch="normal" font-size="40" text-anchor="start" direction="ltr" writing-mode="lr-tb" unicode-bidi="normal" text-decoration="none" transform="matrix(1.87289 0 0 1.87333 1749.26 1895)">neighbour</text><path d="M-18.7289 0 580.596 0M262.204 74.9156 37.4578-149.831M449.493 74.9156 224.747-149.831" stroke="#EEEEEE" stroke-width="9.36444" stroke-linecap="round" stroke-linejoin="round" stroke-miterlimit="4" stroke-opacity="1" fill="none" fill-rule="nonzero" transform="matrix(1 0 0 1.00024 1635.01 1669.73)"/><path d="M-18.7289 0 580.596 0" stroke="#EEEEEE" stroke-width="9.36444" stroke-linecap="round" stroke-linejoin="round" stroke-miterlimit="4" stroke-opacity="1" fill="none" fill-rule="nonzero" transform="matrix(1 0 0 1.00024 1560.09 1594.8)"/><g clip-path="url(#clip12)"><path d="M7.49155 0C7.49155 4.13747 4.13747 7.49155 1.34384e-15 7.49155-4.13747 7.49155-7.49155 4.13747-7.49155 1.34384e-15-7.49155-4.13747-4.13747-7.49155-1.93196e-15-7.49155 4.13747-7.49155 7.49155-4.13747 7.49155 0Z" stroke="#CC9900" stroke-width="14.9831" stroke-linecap="round" stroke-linejoin="round" stroke-miterlimit="4" stroke-opacity="0.4" fill="none" fill-rule="nonzero" transform="matrix(1 0 0 1.00024 1747.38 1407.47)"/><path d="M0 18.7289 0 18727" stroke="#CC9900" stroke-width="9.36444" stroke-linecap="round" stroke-linejoin="round" stroke-miterlimit="4" stroke-opacity="0.4" fill="none" fill-rule="nonzero" transform="matrix(1 0 0 1.00024 1747.38 1407.47)"/><path d="M7.49155 0C7.49155 4.13747 4.13747 7.49155 1.34384e-15 7.49155-4.13747 7.49155-7.49155 4.13747-7.49155 1.34384e-15-7.49155-4.13747-4.13747-7.49155-1.93196e-15-7.49155 4.13747-7.49155 7.49155-4.13747 7.49155 0Z" stroke="#009900" stroke-width="14.9831" stroke-linecap="round" stroke-linejoin="round" stroke-miterlimit="4" stroke-opacity="0.4" fill="none" fill-rule="nonzero" transform="matrix(1 0 0 1.00024 1934.67 1220.13)"/><path d="M0 18.7289 0 18727" stroke="#009900" stroke-width="9.36444" stroke-linecap="round" stroke-linejoin="round" stroke-miterlimit="4" stroke-opacity="0.4" fill="none" fill-rule="nonzero" transform="matrix(1 0 0 1.00024 1934.67 1220.13)"/></g><path d="M187.289 0 374.578 0 299.662-74.9156 112.373-74.9156Z" stroke="#66CCFF" stroke-width="9.36444" stroke-linecap="round" stroke-linejoin="round" stroke-miterlimit="4" stroke-opacity="0.2" fill="#66CCFF" fill-rule="nonzero" fill-opacity="0.1" transform="matrix(1 0 0 1.00024 1635.01 1669.73)"/><g clip-path="url(#clip13)"><path d="M7.49155 0C7.49155 4.13747 4.13747 7.49155 1.34384e-15 7.49155-4.13747 7.49155-7.49155 4.13747-7.49155 1.34384e-15-7.49155-4.13747-4.13747-7.49155-1.93196e-15-7.49155 4.13747-7.49155 7.49155-4.13747 7.49155 0Z" stroke="#CC9900" stroke-width="14.9831" stroke-linecap="round" stroke-linejoin="round" stroke-miterlimit="4" stroke-opacity="0.6" fill="none" fill-rule="nonzero" transform="matrix(1 0 0 1.00024 1822.3 1576.07)"/><path d="M0 18.7289 0 18727" stroke="#CC9900" stroke-width="9.36444" stroke-linecap="round" stroke-linejoin="round" stroke-miterlimit="4" stroke-opacity="0.6" fill="none" fill-rule="nonzero" transform="matrix(1 0 0 1.00024 1822.3 1576.07)"/><path d="M7.49155 0C7.49155 4.13747 4.13747 7.49155 1.34384e-15 7.49155-4.13747 7.49155-7.49155 4.13747-7.49155 1.34384e-15-7.49155-4.13747-4.13747-7.49155-1.93196e-15-7.49155 4.13747-7.49155 7.49155-4.13747 7.49155 0Z" stroke="#009900" stroke-width="14.9831" stroke-linecap="round" stroke-linejoin="round" stroke-miterlimit="4" stroke-opacity="0.6" fill="none" fill-rule="nonzero" transform="matrix(1 0 0 1.00024 2009.59 1482.4)"/><path d="M0 18.7289 0 18727" stroke="#009900" stroke-width="9.36444" stroke-linecap="round" stroke-linejoin="round" stroke-miterlimit="4" stroke-opacity="0.6" fill="none" fill-rule="nonzero" transform="matrix(1 0 0 1.00024 2009.59 1482.4)"/></g><path d="M18.7289-262.204 206.018-262.204 206.018-449.493 393.307-449.493" stroke="#666666" stroke-width="9.36444" stroke-linecap="round" stroke-linejoin="round" stroke-miterlimit="4" stroke-opacity="0.4" fill="none" fill-rule="nonzero" transform="matrix(1 0 0 1.00024 1635.01 1669.73)"/><path d="M271.569-56.1867 196.653-131.102 196.653-224.747 121.738-299.662" stroke="#CC00FF" stroke-width="9.36444" stroke-linecap="round" stroke-linejoin="round" stroke-miterlimit="4" stroke-opacity="1" fill="none" fill-rule="nonzero" transform="matrix(1 0 0 1.00024 1635.01 1669.73)"/><path d="M159.196-262.204 159.196-74.9156 234.111 0 234.111-93.6444" stroke="#CC00FF" stroke-width="9.36444" stroke-linecap="round" stroke-linejoin="round" stroke-miterlimit="4" stroke-opacity="0.1" fill="none" fill-rule="nonzero" transform="matrix(1 0 0 1.00024 1635.01 1669.73)"/><path d="M5.61867 0C5.61867 3.1031 3.1031 5.61867 9.46977e-16 5.61867-3.1031 5.61867-5.61867 3.1031-5.61867 9.46977e-16-5.61867-3.1031-3.1031-5.61867 -9.46977e-16-5.61867 3.1031-5.61867 5.61867-3.1031 5.61867 0Z" stroke="#CC00FF" stroke-width="9.36444" stroke-linecap="round" stroke-linejoin="round" stroke-miterlimit="4" stroke-opacity="1" fill="none" fill-rule="nonzero" transform="matrix(1 0 0 1.00024 1794.2 1407.47)"/><path d="M5.61867 0C5.61867 3.1031 3.1031 5.61867 9.46977e-16 5.61867-3.1031 5.61867-5.61867 3.1031-5.61867 9.46977e-16-5.61867-3.1031-3.1031-5.61867 -9.46977e-16-5.61867 3.1031-5.61867 5.61867-3.1031 5.61867 0Z" stroke="#CC00FF" stroke-width="9.36444" stroke-linecap="round" stroke-linejoin="round" stroke-miterlimit="4" stroke-opacity="1" fill="none" fill-rule="nonzero" transform="matrix(1 0 0 1.00024 1869.12 1576.07)"/><g clip-path="url(#clip14)"><path d="M7.49155 0C7.49155 4.13747 4.13747 7.49155 1.34384e-15 7.49155-4.13747 7.49155-7.49155 4.13747-7.49155 1.34384e-15-7.49155-4.13747-4.13747-7.49155-1.93196e-15-7.49155 4.13747-7.49155 7.49155-4.13747 7.49155 0Z" stroke="#000000" stroke-width="14.9831" stroke-linecap="round" stroke-linejoin="round" stroke-miterlimit="4" stroke-opacity="1" fill="none" fill-rule="nonzero" transform="matrix(1 0 0 1.00024 1850.39 1557.33)"/><path d="M0 18.7289 0 18727" stroke="#000000" stroke-width="9.36444" stroke-linecap="round" stroke-linejoin="round" stroke-miterlimit="4" stroke-opacity="1" fill="none" fill-rule="nonzero" transform="matrix(1 0 0 1.00024 1850.39 1557.33)"/></g><path d="M93.6444-93.6444 280.933-93.6444 280.933-187.289 468.222-187.289" stroke="#666666" stroke-width="9.36444" stroke-linecap="round" stroke-linejoin="round" stroke-miterlimit="4" stroke-opacity="0.6" fill="none" fill-rule="nonzero" transform="matrix(1 0 0 1.00024 1635.01 1669.73)"/><text fill="#000000" fill-opacity="1" font-family="Helvetica,Helvetica_MSFontService,sans-serif" font-style="normal" font-variant="normal" font-weight="400" font-stretch="normal" font-size="40" text-anchor="start" direction="ltr" writing-mode="lr-tb" unicode-bidi="normal" text-decoration="none" transform="matrix(1.87289 0 0 1.87333 2446.91 1857)">Bilinear</text><path d="M-18.7289 0 580.596 0M262.204 74.9156 37.4578-149.831M449.493 74.9156 224.747-149.831" stroke="#EEEEEE" stroke-width="9.36444" stroke-linecap="round" stroke-linejoin="round" stroke-miterlimit="4" stroke-opacity="1" fill="none" fill-rule="nonzero" transform="matrix(1 0 0 1.00024 2290.52 1669.73)"/><path d="M-18.7289 0 580.596 0" stroke="#EEEEEE" stroke-width="9.36444" stroke-linecap="round" stroke-linejoin="round" stroke-miterlimit="4" stroke-opacity="1" fill="none" fill-rule="nonzero" transform="matrix(1 0 0 1.00024 2215.6 1594.8)"/><g clip-path="url(#clip15)"><path d="M7.49155 0C7.49155 4.13747 4.13747 7.49155 1.34384e-15 7.49155-4.13747 7.49155-7.49155 4.13747-7.49155 1.34384e-15-7.49155-4.13747-4.13747-7.49155-1.93196e-15-7.49155 4.13747-7.49155 7.49155-4.13747 7.49155 0Z" stroke="#CC9900" stroke-width="14.9831" stroke-linecap="round" stroke-linejoin="round" stroke-miterlimit="4" stroke-opacity="0.4" fill="none" fill-rule="nonzero" transform="matrix(1 0 0 1.00024 2402.89 1407.47)"/><path d="M0 18.7289 0 18727" stroke="#CC9900" stroke-width="9.36444" stroke-linecap="round" stroke-linejoin="round" stroke-miterlimit="4" stroke-opacity="0.4" fill="none" fill-rule="nonzero" transform="matrix(1 0 0 1.00024 2402.89 1407.47)"/><path d="M7.49155 0C7.49155 4.13747 4.13747 7.49155 1.34384e-15 7.49155-4.13747 7.49155-7.49155 4.13747-7.49155 1.34384e-15-7.49155-4.13747-4.13747-7.49155-1.93196e-15-7.49155 4.13747-7.49155 7.49155-4.13747 7.49155 0Z" stroke="#009900" stroke-width="14.9831" stroke-linecap="round" stroke-linejoin="round" stroke-miterlimit="4" stroke-opacity="0.4" fill="none" fill-rule="nonzero" transform="matrix(1 0 0 1.00024 2590.18 1220.13)"/><path d="M0 18.7289 0 18727" stroke="#009900" stroke-width="9.36444" stroke-linecap="round" stroke-linejoin="round" stroke-miterlimit="4" stroke-opacity="0.4" fill="none" fill-rule="nonzero" transform="matrix(1 0 0 1.00024 2590.18 1220.13)"/></g><path d="M187.289 0 374.578 0 299.662-74.9156 112.373-74.9156Z" stroke="#66CCFF" stroke-width="9.36444" stroke-linecap="round" stroke-linejoin="round" stroke-miterlimit="4" stroke-opacity="0.2" fill="#66CCFF" fill-rule="nonzero" fill-opacity="0.1" transform="matrix(1 0 0 1.00024 2290.52 1669.73)"/><g clip-path="url(#clip16)"><path d="M7.49155 0C7.49155 4.13747 4.13747 7.49155 1.34384e-15 7.49155-4.13747 7.49155-7.49155 4.13747-7.49155 1.34384e-15-7.49155-4.13747-4.13747-7.49155-1.93196e-15-7.49155 4.13747-7.49155 7.49155-4.13747 7.49155 0Z" stroke="#CC9900" stroke-width="14.9831" stroke-linecap="round" stroke-linejoin="round" stroke-miterlimit="4" stroke-opacity="0.6" fill="none" fill-rule="nonzero" transform="matrix(1 0 0 1.00024 2477.81 1576.07)"/><path d="M0 18.7289 0 18727" stroke="#CC9900" stroke-width="9.36444" stroke-linecap="round" stroke-linejoin="round" stroke-miterlimit="4" stroke-opacity="0.6" fill="none" fill-rule="nonzero" transform="matrix(1 0 0 1.00024 2477.81 1576.07)"/><path d="M7.49155 0C7.49155 4.13747 4.13747 7.49155 1.34384e-15 7.49155-4.13747 7.49155-7.49155 4.13747-7.49155 1.34384e-15-7.49155-4.13747-4.13747-7.49155-1.93196e-15-7.49155 4.13747-7.49155 7.49155-4.13747 7.49155 0Z" stroke="#009900" stroke-width="14.9831" stroke-linecap="round" stroke-linejoin="round" stroke-miterlimit="4" stroke-opacity="0.6" fill="none" fill-rule="nonzero" transform="matrix(1 0 0 1.00024 2665.1 1482.4)"/><path d="M0 18.7289 0 18727" stroke="#009900" stroke-width="9.36444" stroke-linecap="round" stroke-linejoin="round" stroke-miterlimit="4" stroke-opacity="0.6" fill="none" fill-rule="nonzero" transform="matrix(1 0 0 1.00024 2665.1 1482.4)"/></g><path d="M112.373-262.204 299.662-449.493" stroke="#666666" stroke-width="9.36444" stroke-linecap="round" stroke-linejoin="round" stroke-miterlimit="4" stroke-opacity="0.4" fill="none" fill-rule="nonzero" transform="matrix(1 0 0 1.00024 2290.52 1669.73)"/><path d="M234.111-117.992 159.196-309.027" stroke="#CC00FF" stroke-width="9.36444" stroke-linecap="round" stroke-linejoin="round" stroke-miterlimit="4" stroke-opacity="1" fill="none" fill-rule="nonzero" transform="matrix(1 0 0 1.00024 2290.52 1669.73)"/><path d="M159.196-309.027 159.196-74.9156 234.111 0 234.111-117.992" stroke="#CC00FF" stroke-width="9.36444" stroke-linecap="round" stroke-linejoin="round" stroke-miterlimit="4" stroke-opacity="0.1" fill="none" fill-rule="nonzero" transform="matrix(1 0 0 1.00024 2290.52 1669.73)"/><path d="M5.61867 0C5.61867 3.1031 3.1031 5.61867 9.46977e-16 5.61867-3.1031 5.61867-5.61867 3.1031-5.61867 9.46977e-16-5.61867-3.1031-3.1031-5.61867 -9.46977e-16-5.61867 3.1031-5.61867 5.61867-3.1031 5.61867 0Z" stroke="#CC00FF" stroke-width="9.36444" stroke-linecap="round" stroke-linejoin="round" stroke-miterlimit="4" stroke-opacity="1" fill="none" fill-rule="nonzero" transform="matrix(1 0 0 1.00024 2449.72 1360.63)"/><path d="M5.61867 0C5.61867 3.1031 3.1031 5.61867 9.46977e-16 5.61867-3.1031 5.61867-5.61867 3.1031-5.61867 9.46977e-16-5.61867-3.1031-3.1031-5.61867 -9.46977e-16-5.61867 3.1031-5.61867 5.61867-3.1031 5.61867 0Z" stroke="#CC00FF" stroke-width="9.36444" stroke-linecap="round" stroke-linejoin="round" stroke-miterlimit="4" stroke-opacity="1" fill="none" fill-rule="nonzero" transform="matrix(1 0 0 1.00024 2524.63 1551.71)"/><g clip-path="url(#clip17)"><path d="M7.49155 0C7.49155 4.13747 4.13747 7.49155 1.34384e-15 7.49155-4.13747 7.49155-7.49155 4.13747-7.49155 1.34384e-15-7.49155-4.13747-4.13747-7.49155-1.93196e-15-7.49155 4.13747-7.49155 7.49155-4.13747 7.49155 0Z" stroke="#000000" stroke-width="14.9831" stroke-linecap="round" stroke-linejoin="round" stroke-miterlimit="4" stroke-opacity="1" fill="none" fill-rule="nonzero" transform="matrix(1 0 0 1.00024 2505.9 1501.13)"/><path d="M0 18.7289 0 18727" stroke="#000000" stroke-width="9.36444" stroke-linecap="round" stroke-linejoin="round" stroke-miterlimit="4" stroke-opacity="1" fill="none" fill-rule="nonzero" transform="matrix(1 0 0 1.00024 2505.9 1501.13)"/></g><path d="M187.289-93.6444 374.578-187.289" stroke="#666666" stroke-width="9.36444" stroke-linecap="round" stroke-linejoin="round" stroke-miterlimit="4" stroke-opacity="0.6" fill="none" fill-rule="nonzero" transform="matrix(1 0 0 1.00024 2290.52 1669.73)"/><text fill="#000000" fill-opacity="1" font-family="Helvetica,Helvetica_MSFontService,sans-serif" font-style="normal" font-variant="normal" font-weight="400" font-stretch="normal" font-size="40" text-anchor="start" direction="ltr" writing-mode="lr-tb" unicode-bidi="normal" text-decoration="none" transform="matrix(1.87289 0 0 1.87333 3106.16 1857)">Bicubic</text><path d="M-37.4578 0 599.324 0M280.933 93.6444 18.7289-168.56M468.222 93.6444 206.018-168.56M37.4578 74.9156 674.24 74.9156M655.511 93.6444 393.307-168.56M93.6444 93.6444-168.56-168.56" stroke="#EEEEEE" stroke-width="9.36444" stroke-linecap="round" stroke-linejoin="round" stroke-miterlimit="4" stroke-opacity="1" fill="none" fill-rule="nonzero" transform="matrix(1 0 0 1.00024 2946.03 1669.73)"/><g clip-path="url(#clip18)"><path d="M-18.7289 0 580.596 0" stroke="#EEEEEE" stroke-width="9.36444" stroke-linecap="round" stroke-linejoin="round" stroke-miterlimit="4" stroke-opacity="1" fill="none" fill-rule="nonzero" transform="matrix(1 0 0 1.00024 2796.2 1519.87)"/><g clip-path="url(#clip19)"><path d="M7.49155 0C7.49155 4.13747 4.13747 7.49155 1.34384e-15 7.49155-4.13747 7.49155-7.49155 4.13747-7.49155 1.34384e-15-7.49155-4.13747-4.13747-7.49155-1.93196e-15-7.49155 4.13747-7.49155 7.49155-4.13747 7.49155 0Z" stroke="#CC9900" stroke-width="14.9831" stroke-linecap="round" stroke-linejoin="round" stroke-miterlimit="4" stroke-opacity="0.2" fill="none" fill-rule="nonzero" transform="matrix(1 0 0 1.00024 2983.49 1332.53)"/><path d="M0 18.7289 0 18727" stroke="#CC9900" stroke-width="9.36444" stroke-linecap="round" stroke-linejoin="round" stroke-miterlimit="4" stroke-opacity="0.2" fill="none" fill-rule="nonzero" transform="matrix(1 0 0 1.00024 2983.49 1332.53)"/><path d="M7.49155 0C7.49155 4.13747 4.13747 7.49155 1.34384e-15 7.49155-4.13747 7.49155-7.49155 4.13747-7.49155 1.34384e-15-7.49155-4.13747-4.13747-7.49155-1.93196e-15-7.49155 4.13747-7.49155 7.49155-4.13747 7.49155 0Z" stroke="#009900" stroke-width="14.9831" stroke-linecap="round" stroke-linejoin="round" stroke-miterlimit="4" stroke-opacity="0.2" fill="none" fill-rule="nonzero" transform="matrix(1 0 0 1.00024 3170.78 1145.2)"/><path d="M0 18.7289 0 18727" stroke="#009900" stroke-width="9.36444" stroke-linecap="round" stroke-linejoin="round" stroke-miterlimit="4" stroke-opacity="0.2" fill="none" fill-rule="nonzero" transform="matrix(1 0 0 1.00024 3170.78 1145.2)"/></g><path d="M7.49155 0C7.49155 4.13747 4.13747 7.49155 1.34384e-15 7.49155-4.13747 7.49155-7.49155 4.13747-7.49155 1.34384e-15-7.49155-4.13747-4.13747-7.49155-1.93196e-15-7.49155 4.13747-7.49155 7.49155-4.13747 7.49155 0Z" stroke="#FF0000" stroke-width="14.9831" stroke-linecap="round" stroke-linejoin="round" stroke-miterlimit="4" stroke-opacity="0.2" fill="none" fill-rule="nonzero" transform="matrix(1 0 0 1.00024 2796.2 1426.2)"/><path d="M0 18.7289 0 18727" stroke="#FF0000" stroke-width="9.36444" stroke-linecap="round" stroke-linejoin="round" stroke-miterlimit="4" stroke-opacity="0.2" fill="none" fill-rule="nonzero" transform="matrix(1 0 0 1.00024 2796.2 1426.2)"/><path d="M7.49155 0C7.49155 4.13747 4.13747 7.49155 1.34384e-15 7.49155-4.13747 7.49155-7.49155 4.13747-7.49155 1.34384e-15-7.49155-4.13747-4.13747-7.49155-1.93196e-15-7.49155 4.13747-7.49155 7.49155-4.13747 7.49155 0Z" stroke="#0000FF" stroke-width="14.9831" stroke-linecap="round" stroke-linejoin="round" stroke-miterlimit="4" stroke-opacity="0.2" fill="none" fill-rule="nonzero" transform="matrix(1 0 0 1.00024 3358.07 1201.4)"/><path d="M0 18.7289 0 18727" stroke="#0000FF" stroke-width="9.36444" stroke-linecap="round" stroke-linejoin="round" stroke-miterlimit="4" stroke-opacity="0.2" fill="none" fill-rule="nonzero" transform="matrix(1 0 0 1.00024 3358.07 1201.4)"/><path d="M0-93.6444C299.662-93.6444 187.289-524.409 561.867-318.391" stroke="#666666" stroke-width="9.36444" stroke-linecap="round" stroke-linejoin="round" stroke-miterlimit="4" stroke-opacity="0.2" fill="none" fill-rule="nonzero" transform="matrix(1 0 0 1.00024 2796.2 1519.87)"/></g><path d="M-18.7289 0 580.596 0" stroke="#EEEEEE" stroke-width="9.36444" stroke-linecap="round" stroke-linejoin="round" stroke-miterlimit="4" stroke-opacity="1" fill="none" fill-rule="nonzero" transform="matrix(1 0 0 1.00024 2871.12 1594.8)"/><g clip-path="url(#clip20)"><path d="M7.49155 0C7.49155 4.13747 4.13747 7.49155 1.34384e-15 7.49155-4.13747 7.49155-7.49155 4.13747-7.49155 1.34384e-15-7.49155-4.13747-4.13747-7.49155-1.93196e-15-7.49155 4.13747-7.49155 7.49155-4.13747 7.49155 0Z" stroke="#CC9900" stroke-width="14.9831" stroke-linecap="round" stroke-linejoin="round" stroke-miterlimit="4" stroke-opacity="0.4" fill="none" fill-rule="nonzero" transform="matrix(1 0 0 1.00024 3058.4 1407.47)"/><path d="M0 18.7289 0 18727" stroke="#CC9900" stroke-width="9.36444" stroke-linecap="round" stroke-linejoin="round" stroke-miterlimit="4" stroke-opacity="0.4" fill="none" fill-rule="nonzero" transform="matrix(1 0 0 1.00024 3058.4 1407.47)"/><path d="M7.49155 0C7.49155 4.13747 4.13747 7.49155 1.34384e-15 7.49155-4.13747 7.49155-7.49155 4.13747-7.49155 1.34384e-15-7.49155-4.13747-4.13747-7.49155-1.93196e-15-7.49155 4.13747-7.49155 7.49155-4.13747 7.49155 0Z" stroke="#009900" stroke-width="14.9831" stroke-linecap="round" stroke-linejoin="round" stroke-miterlimit="4" stroke-opacity="0.4" fill="none" fill-rule="nonzero" transform="matrix(1 0 0 1.00024 3245.69 1220.13)"/><path d="M0 18.7289 0 18727" stroke="#009900" stroke-width="9.36444" stroke-linecap="round" stroke-linejoin="round" stroke-miterlimit="4" stroke-opacity="0.4" fill="none" fill-rule="nonzero" transform="matrix(1 0 0 1.00024 3245.69 1220.13)"/></g><g clip-path="url(#clip21)"><path d="M7.49155 0C7.49155 4.13747 4.13747 7.49155 1.34384e-15 7.49155-4.13747 7.49155-7.49155 4.13747-7.49155 1.34384e-15-7.49155-4.13747-4.13747-7.49155-1.93196e-15-7.49155 4.13747-7.49155 7.49155-4.13747 7.49155 0Z" stroke="#FF0000" stroke-width="14.9831" stroke-linecap="round" stroke-linejoin="round" stroke-miterlimit="4" stroke-opacity="0.4" fill="none" fill-rule="nonzero" transform="matrix(1 0 0 1.00024 2871.12 1313.8)"/><path d="M0 18.7289 0 18727" stroke="#FF0000" stroke-width="9.36444" stroke-linecap="round" stroke-linejoin="round" stroke-miterlimit="4" stroke-opacity="0.4" fill="none" fill-rule="nonzero" transform="matrix(1 0 0 1.00024 2871.12 1313.8)"/><path d="M7.49155 0C7.49155 4.13747 4.13747 7.49155 1.34384e-15 7.49155-4.13747 7.49155-7.49155 4.13747-7.49155 1.34384e-15-7.49155-4.13747-4.13747-7.49155-1.93196e-15-7.49155 4.13747-7.49155 7.49155-4.13747 7.49155 0Z" stroke="#0000FF" stroke-width="14.9831" stroke-linecap="round" stroke-linejoin="round" stroke-miterlimit="4" stroke-opacity="0.4" fill="none" fill-rule="nonzero" transform="matrix(1 0 0 1.00024 3432.98 1501.13)"/><path d="M0 18.7289 0 18727" stroke="#0000FF" stroke-width="9.36444" stroke-linecap="round" stroke-linejoin="round" stroke-miterlimit="4" stroke-opacity="0.4" fill="none" fill-rule="nonzero" transform="matrix(1 0 0 1.00024 3432.98 1501.13)"/></g><path d="M0-280.933C374.578 93.6444 262.204-805.342 561.867-93.6444" stroke="#666666" stroke-width="9.36444" stroke-linecap="round" stroke-linejoin="round" stroke-miterlimit="4" stroke-opacity="0.4" fill="none" fill-rule="nonzero" transform="matrix(1 0 0 1.00024 2871.12 1594.8)"/><g clip-path="url(#clip22)"><path d="M7.49155 0C7.49155 4.13747 4.13747 7.49155 1.34384e-15 7.49155-4.13747 7.49155-7.49155 4.13747-7.49155 1.34384e-15-7.49155-4.13747-4.13747-7.49155-1.93196e-15-7.49155 4.13747-7.49155 7.49155-4.13747 7.49155 0Z" stroke="#FF0000" stroke-width="14.9831" stroke-linecap="round" stroke-linejoin="round" stroke-miterlimit="4" stroke-opacity="0.6" fill="none" fill-rule="nonzero" transform="matrix(1 0 0 1.00024 2946.03 1295.07)"/><path d="M0 18.7289 0 18727" stroke="#FF0000" stroke-width="9.36444" stroke-linecap="round" stroke-linejoin="round" stroke-miterlimit="4" stroke-opacity="0.6" fill="none" fill-rule="nonzero" transform="matrix(1 0 0 1.00024 2946.03 1295.07)"/><path d="M7.49155 0C7.49155 4.13747 4.13747 7.49155 1.34384e-15 7.49155-4.13747 7.49155-7.49155 4.13747-7.49155 1.34384e-15-7.49155-4.13747-4.13747-7.49155-1.93196e-15-7.49155 4.13747-7.49155 7.49155-4.13747 7.49155 0Z" stroke="#CC9900" stroke-width="14.9831" stroke-linecap="round" stroke-linejoin="round" stroke-miterlimit="4" stroke-opacity="0.6" fill="none" fill-rule="nonzero" transform="matrix(1 0 0 1.00024 3133.32 1576.07)"/><path d="M0 18.7289 0 18727" stroke="#CC9900" stroke-width="9.36444" stroke-linecap="round" stroke-linejoin="round" stroke-miterlimit="4" stroke-opacity="0.6" fill="none" fill-rule="nonzero" transform="matrix(1 0 0 1.00024 3133.32 1576.07)"/><path d="M7.49155 0C7.49155 4.13747 4.13747 7.49155 1.34384e-15 7.49155-4.13747 7.49155-7.49155 4.13747-7.49155 1.34384e-15-7.49155-4.13747-4.13747-7.49155-1.93196e-15-7.49155 4.13747-7.49155 7.49155-4.13747 7.49155 0Z" stroke="#009900" stroke-width="14.9831" stroke-linecap="round" stroke-linejoin="round" stroke-miterlimit="4" stroke-opacity="0.6" fill="none" fill-rule="nonzero" transform="matrix(1 0 0 1.00024 3320.61 1482.4)"/><path d="M0 18.7289 0 18727" stroke="#009900" stroke-width="9.36444" stroke-linecap="round" stroke-linejoin="round" stroke-miterlimit="4" stroke-opacity="0.6" fill="none" fill-rule="nonzero" transform="matrix(1 0 0 1.00024 3320.61 1482.4)"/><path d="M7.49155 0C7.49155 4.13747 4.13747 7.49155 1.34384e-15 7.49155-4.13747 7.49155-7.49155 4.13747-7.49155 1.34384e-15-7.49155-4.13747-4.13747-7.49155-1.93196e-15-7.49155 4.13747-7.49155 7.49155-4.13747 7.49155 0Z" stroke="#0000FF" stroke-width="14.9831" stroke-linecap="round" stroke-linejoin="round" stroke-miterlimit="4" stroke-opacity="0.6" fill="none" fill-rule="nonzero" transform="matrix(1 0 0 1.00024 3507.9 1388.73)"/><path d="M0 18.7289 0 18727" stroke="#0000FF" stroke-width="9.36444" stroke-linecap="round" stroke-linejoin="round" stroke-miterlimit="4" stroke-opacity="0.6" fill="none" fill-rule="nonzero" transform="matrix(1 0 0 1.00024 3507.9 1388.73)"/><path d="M0-374.578C187.289 206.018 374.578-299.662 561.867-280.933" stroke="#666666" stroke-width="9.36444" stroke-linecap="round" stroke-linejoin="round" stroke-miterlimit="4" stroke-opacity="0.6" fill="none" fill-rule="nonzero" transform="matrix(1 0 0 1.00024 2946.03 1669.73)"/></g><path d="M74.9156 74.9156 636.782 74.9156 412.036-149.831-149.831-149.831Z" stroke="#66CCFF" stroke-width="9.36444" stroke-linecap="round" stroke-linejoin="round" stroke-miterlimit="4" stroke-opacity="0.2" fill="#66CCFF" fill-rule="nonzero" fill-opacity="0.1" transform="matrix(1 0 0 1.00024 2946.03 1669.73)"/><path d="M309.027-41.2036C131.102-144.212 234.111-237.857 84.28-400.798" stroke="#CC00FF" stroke-width="9.36444" stroke-linecap="round" stroke-linejoin="round" stroke-miterlimit="4" stroke-opacity="1" fill="none" fill-rule="nonzero" transform="matrix(1 0 0 1.00024 2946.03 1669.73)"/><path d="M84.28-402.671 84.28-149.831 309.027 74.9156 309.027-41.2036M159.196-286.552 159.196-74.9156M234.111-99.2631 234.111 0" stroke="#CC00FF" stroke-width="9.36444" stroke-linecap="round" stroke-linejoin="round" stroke-miterlimit="4" stroke-opacity="0.1" fill="none" fill-rule="nonzero" transform="matrix(1 0 0 1.00024 2946.03 1669.73)"/><path d="M5.61867 0C5.61867 3.1031 3.1031 5.61867 9.46977e-16 5.61867-3.1031 5.61867-5.61867 3.1031-5.61867 9.46977e-16-5.61867-3.1031-3.1031-5.61867 -9.46977e-16-5.61867 3.1031-5.61867 5.61867-3.1031 5.61867 0Z" stroke="#CC00FF" stroke-width="9.36444" stroke-linecap="round" stroke-linejoin="round" stroke-miterlimit="4" stroke-opacity="1" fill="none" fill-rule="nonzero" transform="matrix(1 0 0 1.00024 3030.31 1266.97)"/><path d="M5.61867 0C5.61867 3.1031 3.1031 5.61867 9.46977e-16 5.61867-3.1031 5.61867-5.61867 3.1031-5.61867 9.46977e-16-5.61867-3.1031-3.1031-5.61867 -9.46977e-16-5.61867 3.1031-5.61867 5.61867-3.1031 5.61867 0Z" stroke="#CC00FF" stroke-width="9.36444" stroke-linecap="round" stroke-linejoin="round" stroke-miterlimit="4" stroke-opacity="1" fill="none" fill-rule="nonzero" transform="matrix(1 0 0 1.00024 3105.23 1383.11)"/><path d="M5.61867 0C5.61867 3.1031 3.1031 5.61867 9.46977e-16 5.61867-3.1031 5.61867-5.61867 3.1031-5.61867 9.46977e-16-5.61867-3.1031-3.1031-5.61867 -9.46977e-16-5.61867 3.1031-5.61867 5.61867-3.1031 5.61867 0Z" stroke="#CC00FF" stroke-width="9.36444" stroke-linecap="round" stroke-linejoin="round" stroke-miterlimit="4" stroke-opacity="1" fill="none" fill-rule="nonzero" transform="matrix(1 0 0 1.00024 3180.14 1570.45)"/><path d="M5.61867 0C5.61867 3.1031 3.1031 5.61867 9.46977e-16 5.61867-3.1031 5.61867-5.61867 3.1031-5.61867 9.46977e-16-5.61867-3.1031-3.1031-5.61867 -9.46977e-16-5.61867 3.1031-5.61867 5.61867-3.1031 5.61867 0Z" stroke="#CC00FF" stroke-width="9.36444" stroke-linecap="round" stroke-linejoin="round" stroke-miterlimit="4" stroke-opacity="1" fill="none" fill-rule="nonzero" transform="matrix(1 0 0 1.00024 3255.06 1628.52)"/><g clip-path="url(#clip23)"><path d="M7.49155 0C7.49155 4.13747 4.13747 7.49155 1.34384e-15 7.49155-4.13747 7.49155-7.49155 4.13747-7.49155 1.34384e-15-7.49155-4.13747-4.13747-7.49155-1.93196e-15-7.49155 4.13747-7.49155 7.49155-4.13747 7.49155 0Z" stroke="#000000" stroke-width="14.9831" stroke-linecap="round" stroke-linejoin="round" stroke-miterlimit="4" stroke-opacity="1" fill="none" fill-rule="nonzero" transform="matrix(1 0 0 1.00024 3161.41 1542.35)"/><path d="M0 18.7289 0 18727" stroke="#000000" stroke-width="9.36444" stroke-linecap="round" stroke-linejoin="round" stroke-miterlimit="4" stroke-opacity="1" fill="none" fill-rule="nonzero" transform="matrix(1 0 0 1.00024 3161.41 1542.35)"/></g><g clip-path="url(#clip24)"><path d="M7.49155 0C7.49155 4.13747 4.13747 7.49155 1.34384e-15 7.49155-4.13747 7.49155-7.49155 4.13747-7.49155 1.34384e-15-7.49155-4.13747-4.13747-7.49155-1.93196e-15-7.49155 4.13747-7.49155 7.49155-4.13747 7.49155 0Z" stroke="#FF0000" stroke-width="14.9831" stroke-linecap="round" stroke-linejoin="round" stroke-miterlimit="4" stroke-opacity="1" fill="none" fill-rule="nonzero" transform="matrix(1 0 0 1.00024 3020.95 1557.33)"/><path d="M0 18.7289 0 18727" stroke="#FF0000" stroke-width="9.36444" stroke-linecap="round" stroke-linejoin="round" stroke-miterlimit="4" stroke-opacity="1" fill="none" fill-rule="nonzero" transform="matrix(1 0 0 1.00024 3020.95 1557.33)"/><path d="M7.49155 0C7.49155 4.13747 4.13747 7.49155 1.34384e-15 7.49155-4.13747 7.49155-7.49155 4.13747-7.49155 1.34384e-15-7.49155-4.13747-4.13747-7.49155-1.93196e-15-7.49155 4.13747-7.49155 7.49155-4.13747 7.49155 0Z" stroke="#CC9900" stroke-width="14.9831" stroke-linecap="round" stroke-linejoin="round" stroke-miterlimit="4" stroke-opacity="1" fill="none" fill-rule="nonzero" transform="matrix(1 0 0 1.00024 3208.24 1613.53)"/><path d="M0 18.7289 0 18727" stroke="#CC9900" stroke-width="9.36444" stroke-linecap="round" stroke-linejoin="round" stroke-miterlimit="4" stroke-opacity="1" fill="none" fill-rule="nonzero" transform="matrix(1 0 0 1.00024 3208.24 1613.53)"/><path d="M7.49155 0C7.49155 4.13747 4.13747 7.49155 1.34384e-15 7.49155-4.13747 7.49155-7.49155 4.13747-7.49155 1.34384e-15-7.49155-4.13747-4.13747-7.49155-1.93196e-15-7.49155 4.13747-7.49155 7.49155-4.13747 7.49155 0Z" stroke="#009900" stroke-width="14.9831" stroke-linecap="round" stroke-linejoin="round" stroke-miterlimit="4" stroke-opacity="1" fill="none" fill-rule="nonzero" transform="matrix(1 0 0 1.00024 3395.52 1651)"/><path d="M0 18.7289 0 18727" stroke="#009900" stroke-width="9.36444" stroke-linecap="round" stroke-linejoin="round" stroke-miterlimit="4" stroke-opacity="1" fill="none" fill-rule="nonzero" transform="matrix(1 0 0 1.00024 3395.52 1651)"/><path d="M7.49155 0C7.49155 4.13747 4.13747 7.49155 1.34384e-15 7.49155-4.13747 7.49155-7.49155 4.13747-7.49155 1.34384e-15-7.49155-4.13747-4.13747-7.49155-1.93196e-15-7.49155 4.13747-7.49155 7.49155-4.13747 7.49155 0Z" stroke="#0000FF" stroke-width="14.9831" stroke-linecap="round" stroke-linejoin="round" stroke-miterlimit="4" stroke-opacity="1" fill="none" fill-rule="nonzero" transform="matrix(1 0 0 1.00024 3582.81 1557.33)"/><path d="M0 18.7289 0 18727" stroke="#0000FF" stroke-width="9.36444" stroke-linecap="round" stroke-linejoin="round" stroke-miterlimit="4" stroke-opacity="1" fill="none" fill-rule="nonzero" transform="matrix(1 0 0 1.00024 3582.81 1557.33)"/><path d="M0-187.289C187.289-159.196 374.578 9.36444 561.867-187.289" stroke="#666666" stroke-width="9.36444" stroke-linecap="round" stroke-linejoin="round" stroke-miterlimit="4" stroke-opacity="1" fill="none" fill-rule="nonzero" transform="matrix(1 0 0 1.00024 3020.95 1744.67)"/></g></g></g></g><text fill="#404040" fill-opacity="1" font-family="Helvetica,Helvetica_MSFontService,sans-serif" font-style="normal" font-variant="normal" font-weight="700" font-stretch="normal" font-size="83" text-anchor="start" direction="ltr" writing-mode="lr-tb" unicode-bidi="normal" text-decoration="none" transform="matrix(1 0 0 1 978.482 748)">Interpolation </text><text fill="#404040" fill-opacity="1" font-family="Helvetica,Helvetica_MSFontService,sans-serif" font-style="normal" font-variant="normal" font-weight="700" font-stretch="normal" font-size="83" text-anchor="start" direction="ltr" writing-mode="lr-tb" unicode-bidi="normal" text-decoration="none" transform="matrix(1 0 0 1 1276.4 847)">in 1D</text><text fill="#404040" fill-opacity="1" font-family="Helvetica,Helvetica_MSFontService,sans-serif" font-style="normal" font-variant="normal" font-weight="700" font-stretch="normal" font-size="83" text-anchor="start" direction="ltr" writing-mode="lr-tb" unicode-bidi="normal" text-decoration="none" transform="matrix(1 0 0 1 979.986 1504)">Interpolation </text><text fill="#404040" fill-opacity="1" font-family="Helvetica,Helvetica_MSFontService,sans-serif" font-style="normal" font-variant="normal" font-weight="700" font-stretch="normal" font-size="83" text-anchor="start" direction="ltr" writing-mode="lr-tb" unicode-bidi="normal" text-decoration="none" transform="matrix(1 0 0 1 1277.9 1603)">in 2D</text></g></g></svg>